<?xml version="1.0" encoding="UTF-8" standalone="no"?>
<!DOCTYPE svg PUBLIC "-//W3C//DTD SVG 1.1//EN"
 "http://www.w3.org/Graphics/SVG/1.1/DTD/svg11.dtd">
<!-- Generated by graphviz version 2.49.0 (0)
 -->
<!-- Title: Tree Pages: 1 -->
<svg width="277pt" height="314pt"
 viewBox="0.00 0.00 277.00 314.00" xmlns="http://www.w3.org/2000/svg" xmlns:xlink="http://www.w3.org/1999/xlink">
<g id="graph0" class="graph" transform="scale(1 1) rotate(0) translate(4 310)">
<title>Tree</title>
<polygon fill="white" stroke="transparent" points="-4,4 -4,-310 273,-310 273,4 -4,4"/>
<!-- 0 -->
<g id="node1" class="node">
<title>0</title>
<path fill="#bddef6" stroke="black" d="M218,-306C218,-306 107,-306 107,-306 101,-306 95,-300 95,-294 95,-294 95,-235 95,-235 95,-229 101,-223 107,-223 107,-223 218,-223 218,-223 224,-223 230,-229 230,-235 230,-235 230,-294 230,-294 230,-300 224,-306 218,-306"/>
<text text-anchor="start" x="103" y="-290.8" font-family="Helvetica,sans-Serif" font-size="14.00">有自己的房子 ≤ 3.0</text>
<text text-anchor="start" x="130" y="-275.8" font-family="Helvetica,sans-Serif" font-size="14.00">gini = 0.48</text>
<text text-anchor="start" x="120.5" y="-260.8" font-family="Helvetica,sans-Serif" font-size="14.00">samples = 15</text>
<text text-anchor="start" x="122" y="-245.8" font-family="Helvetica,sans-Serif" font-size="14.00">value = [6, 9]</text>
<text text-anchor="start" x="134.5" y="-230.8" font-family="Helvetica,sans-Serif" font-size="14.00">class = 1</text>
</g>
<!-- 1 -->
<g id="node2" class="node">
<title>1</title>
<path fill="#f2c09c" stroke="black" d="M142,-187C142,-187 69,-187 69,-187 63,-187 57,-181 57,-175 57,-175 57,-116 57,-116 57,-110 63,-104 69,-104 69,-104 142,-104 142,-104 148,-104 154,-110 154,-116 154,-116 154,-175 154,-175 154,-181 148,-187 142,-187"/>
<text text-anchor="start" x="67" y="-171.8" font-family="Helvetica,sans-Serif" font-size="14.00">有工作 ≤ 3.0</text>
<text text-anchor="start" x="69" y="-156.8" font-family="Helvetica,sans-Serif" font-size="14.00">gini = 0.444</text>
<text text-anchor="start" x="67.5" y="-141.8" font-family="Helvetica,sans-Serif" font-size="14.00">samples = 9</text>
<text text-anchor="start" x="65" y="-126.8" font-family="Helvetica,sans-Serif" font-size="14.00">value = [6, 3]</text>
<text text-anchor="start" x="77.5" y="-111.8" font-family="Helvetica,sans-Serif" font-size="14.00">class = 0</text>
</g>
<!-- 0&#45;&gt;1 -->
<g id="edge1" class="edge">
<title>0&#45;&gt;1</title>
<path fill="none" stroke="black" d="M142.72,-222.91C138.52,-214.29 134.04,-205.09 129.7,-196.17"/>
<polygon fill="black" stroke="black" points="132.77,-194.48 125.24,-187.02 126.47,-197.54 132.77,-194.48"/>
<text text-anchor="middle" x="117.09" y="-206.96" font-family="Helvetica,sans-Serif" font-size="14.00">True</text>
</g>
<!-- 4 -->
<g id="node5" class="node">
<title>4</title>
<path fill="#399de5" stroke="black" d="M257,-179.5C257,-179.5 184,-179.5 184,-179.5 178,-179.5 172,-173.5 172,-167.5 172,-167.5 172,-123.5 172,-123.5 172,-117.5 178,-111.5 184,-111.5 184,-111.5 257,-111.5 257,-111.5 263,-111.5 269,-117.5 269,-123.5 269,-123.5 269,-167.5 269,-167.5 269,-173.5 263,-179.5 257,-179.5"/>
<text text-anchor="start" x="191.5" y="-164.3" font-family="Helvetica,sans-Serif" font-size="14.00">gini = 0.0</text>
<text text-anchor="start" x="182.5" y="-149.3" font-family="Helvetica,sans-Serif" font-size="14.00">samples = 6</text>
<text text-anchor="start" x="180" y="-134.3" font-family="Helvetica,sans-Serif" font-size="14.00">value = [0, 6]</text>
<text text-anchor="start" x="192.5" y="-119.3" font-family="Helvetica,sans-Serif" font-size="14.00">class = 1</text>
</g>
<!-- 0&#45;&gt;4 -->
<g id="edge4" class="edge">
<title>0&#45;&gt;4</title>
<path fill="none" stroke="black" d="M182.62,-222.91C188.09,-211.87 194.03,-199.9 199.54,-188.77"/>
<polygon fill="black" stroke="black" points="202.75,-190.18 204.06,-179.67 196.48,-187.07 202.75,-190.18"/>
<text text-anchor="middle" x="212.05" y="-199.66" font-family="Helvetica,sans-Serif" font-size="14.00">False</text>
</g>
<!-- 2 -->
<g id="node3" class="node">
<title>2</title>
<path fill="#e58139" stroke="black" d="M85,-68C85,-68 12,-68 12,-68 6,-68 0,-62 0,-56 0,-56 0,-12 0,-12 0,-6 6,0 12,0 12,0 85,0 85,0 91,0 97,-6 97,-12 97,-12 97,-56 97,-56 97,-62 91,-68 85,-68"/>
<text text-anchor="start" x="19.5" y="-52.8" font-family="Helvetica,sans-Serif" font-size="14.00">gini = 0.0</text>
<text text-anchor="start" x="10.5" y="-37.8" font-family="Helvetica,sans-Serif" font-size="14.00">samples = 6</text>
<text text-anchor="start" x="8" y="-22.8" font-family="Helvetica,sans-Serif" font-size="14.00">value = [6, 0]</text>
<text text-anchor="start" x="20.5" y="-7.8" font-family="Helvetica,sans-Serif" font-size="14.00">class = 0</text>
</g>
<!-- 1&#45;&gt;2 -->
<g id="edge2" class="edge">
<title>1&#45;&gt;2</title>
<path fill="none" stroke="black" d="M84.28,-103.73C79.76,-95.06 74.99,-85.9 70.46,-77.18"/>
<polygon fill="black" stroke="black" points="73.56,-75.55 65.83,-68.3 67.35,-78.79 73.56,-75.55"/>
</g>
<!-- 3 -->
<g id="node4" class="node">
<title>3</title>
<path fill="#399de5" stroke="black" d="M200,-68C200,-68 127,-68 127,-68 121,-68 115,-62 115,-56 115,-56 115,-12 115,-12 115,-6 121,0 127,0 127,0 200,0 200,0 206,0 212,-6 212,-12 212,-12 212,-56 212,-56 212,-62 206,-68 200,-68"/>
<text text-anchor="start" x="134.5" y="-52.8" font-family="Helvetica,sans-Serif" font-size="14.00">gini = 0.0</text>
<text text-anchor="start" x="125.5" y="-37.8" font-family="Helvetica,sans-Serif" font-size="14.00">samples = 3</text>
<text text-anchor="start" x="123" y="-22.8" font-family="Helvetica,sans-Serif" font-size="14.00">value = [0, 3]</text>
<text text-anchor="start" x="135.5" y="-7.8" font-family="Helvetica,sans-Serif" font-size="14.00">class = 1</text>
</g>
<!-- 1&#45;&gt;3 -->
<g id="edge3" class="edge">
<title>1&#45;&gt;3</title>
<path fill="none" stroke="black" d="M127.1,-103.73C131.69,-95.06 136.54,-85.9 141.16,-77.18"/>
<polygon fill="black" stroke="black" points="144.27,-78.77 145.86,-68.3 138.09,-75.5 144.27,-78.77"/>
</g>
</g>
</svg>
